<svg id="Layer_1" data-name="Layer 1" xmlns="http://www.w3.org/2000/svg" viewBox="0 0 166.16 201.48"><polygon points="35.29 20.61 83.22 40.19 131.69 20.61 83.49 1.56 35.29 20.61" fill="#192643"/><path d="M160.15,120.65V29.92h-46L84.93,42.33a3.11,3.11,0,0,1-2.24,0L52.91,29.92H6.72v88.59c1.07,59.71,77,81.11,77,81.11C163.79,171.16,160.15,120.65,160.15,120.65Z" fill="#192643"/><path d="M83.78,193.65l-.44-.12a139.37,139.37,0,0,1-35.17-16.75C24.94,161.22,12.44,141,12,118.21V36H55.9L83.32,47.38h0a1.44,1.44,0,0,0,.91,0l26.64-11.32.27-.12h43.7v84.14c.06,1,.55,12.43-7.65,27-7.69,13.68-24.85,32.83-63,46.39ZM15,38.87v79.31c.9,50.45,62.89,70.63,68.74,72.41,70.65-25.31,68.27-69.9,68.24-70.35V38.87h-40.2L85.38,50.06a4.29,4.29,0,0,1-3.2,0L55.32,38.87Z" fill="#c5a059"/><path d="M83.41,17.45A2.7,2.7,0,0,0,80.6,20a1.9,1.9,0,0,0,.07.54l-25.16,7s-3.42.69-3.69,2.56c0,0,0,2.37.08,5.09a3,3,0,0,0,0,5.64,15.85,15.85,0,0,1-.11,2.43c-.27.75-1.61,2.25-1.77,10.11a10.29,10.29,0,0,0,6.42.22s.7-4.12-1.76-10.38l0-2.43a3,3,0,0,0,0-5.57l0-4.75,26.75-8.73a2.92,2.92,0,0,0,2.06.83A2.7,2.7,0,0,0,86.22,20,2.7,2.7,0,0,0,83.41,17.45Z" fill="#c5a059"/><path d="M83.21,63.38h-.12a1,1,0,0,1-.85-.69c-.92-2.63-8.92-6.3-13.14-7.61-3.7-1.15-8.42-5.15-8.62-5.32a1,1,0,1,1,1.33-1.56s4.61,3.89,7.9,4.91c.12,0,10.3,3.36,13.62,7.44a23,23,0,0,1,10-6.25l.84-.28c6.13-2,7.08-2.34,10.53-4.85a1,1,0,0,1,1.21,1.67c-3.71,2.69-4.84,3.06-11.09,5.13l-.84.28c-7,2.34-9.85,6.62-9.88,6.66A1,1,0,0,1,83.21,63.38Z" fill="#c5a059"/><path d="M81.86,70.15C68.36,56.41,48.4,57.77,48.4,57.77L46.3,90.18c24.55-2,35.56,10,35.56,10Z" fill="#c5a059"/><path d="M85,100.15s11-12,35.56-10l-2.09-32.41S98.5,56.41,85,70.15Z" fill="#c5a059"/><path d="M43.6,62a3.57,3.57,0,0,1,2.7.39L44.23,93.12a61,61,0,0,1,31.94,6s-13.51-4.76-32-2.68c-1.18.13-2.48.75-2.83-.16Z" fill="#c5a059"/><path d="M123.14,62a3.57,3.57,0,0,0-2.7.39l2.07,30.77a61,61,0,0,0-31.94,6s13.51-4.76,32-2.68c1.18.13,2.48.75,2.83-.16Z" fill="#c5a059"/><path d="M42.74,127.29,22.39,107.67h-2.8c-.07,1-.1,2.07-.12,3.12l17.39,16.39Z" fill="#952d34"/><polygon points="57 127.29 60.83 127.29 80.39 109.22 80.39 107.67 76.15 107.67 57 125.24 57 127.29" fill="#952d34"/><path d="M44.45,140.76H40.17L31,149.22c.8,1.16,1.63,2.29,2.51,3.38l10.92-9.79Z" fill="#952d34"/><polygon points="58.79 140.62 80.39 161.54 80.39 156.06 64.66 140.62 58.79 140.62" fill="#952d34"/><path d="M46.3,164.69a59.72,59.72,0,0,0,8.19,4.87V107.67H46.3Z" fill="#952d34"/><path d="M80.39,130.22H22a65.16,65.16,0,0,0,2.86,8H80.39Z" fill="#952d34"/><path d="M47,107.67H44.52v15.14L28.1,107.67H22.39l20.35,19.62H36.86L19.47,110.21c0,.37,0,1.33,0,1.71,0,.56,0,1.12,0,1.68L33,127.29h-12c.28,1.24.6,1.73.94,2.93H47Z" fill="#fff"/><polygon points="66.89 127.29 80.39 114.71 80.39 109.22 60.83 127.29 57 127.29 57 125.24 76.15 107.67 72.86 107.67 57 122.31 57 107.67 54.06 107.67 54.06 130.22 80.39 130.22 80.39 127.29 66.89 127.29" fill="#fff"/><path d="M80.39,140.62v-2.94H54.49v31.88c.82.41,1.67.79,2.51,1.16V145.1l23.39,22.21v-5.77l-21.6-20.92h5.87l15.73,15.44v-3.44l-11.9-12Z" fill="#fff"/><path d="M24.71,137.83c.43,1,.88,2,1.35,2.93h8.05l-5.34,5c.71,1.18,1.46,2.34,2.25,3.47l9.15-8.46h4.28v2.05L33.53,152.6c.45.57.92,1.14,1.39,1.69l9.53-8.54v17.57c.81.63,1.64,1.23,2.48,1.81v-27.3Z" fill="#fff"/><path d="M112.6,156.38a23.11,23.11,0,1,1,23.11-23.11A23.14,23.14,0,0,1,112.6,156.38Zm0-44.17a21.06,21.06,0,1,0,21.05,21.06A21.08,21.08,0,0,0,112.6,112.21Z" fill="#c5a059"/><path d="M130.2,131.17a17.43,17.43,0,0,0-2.77-7.6,39.8,39.8,0,0,1-.43,6Z" fill="#c5a059"/><path d="M121.22,117.78c-.84,1.62-2.07,4-3.51,6.82,2.52,1.39,5.2,2.82,8,4.27a38.52,38.52,0,0,0,.3-7.18A17.72,17.72,0,0,0,121.22,117.78Z" fill="#c5a059"/><path d="M116.5,123.93l3.49-6.77a17.38,17.38,0,0,0-4.57-1.39,27.9,27.9,0,0,0-6.25,3.91C111.34,121,113.8,122.42,116.5,123.93Z" fill="#c5a059"/><path d="M122.84,138.48a30.88,30.88,0,0,0,2.64-8.18c-2.94-1.52-5.76-3-8.4-4.48l-3.77,7.33Z" fill="#c5a059"/><path d="M108,118.92a28.64,28.64,0,0,1,4.87-3.38,17.88,17.88,0,0,0-7.62,1.62C106.05,117.72,107,118.31,108,118.92Z" fill="#c5a059"/><path d="M107.46,141.52l4-7.82-9.09-5.09a31.72,31.72,0,0,0-2.52,8.73C102.35,138.73,104.9,140.14,107.46,141.52Z" fill="#c5a059"/><path d="M112.11,132.47l3.77-7.32c-2.89-1.61-5.5-3.13-7.78-4.52a25.08,25.08,0,0,0-5.1,6.74Z" fill="#c5a059"/><path d="M116.73,146.44a25.47,25.47,0,0,0,5.47-6.74l-9.52-5.33-4,7.81C111.39,143.65,114.1,145.08,116.73,146.44Z" fill="#c5a059"/><path d="M94.92,134.53l3.67,2.09a32.91,32.91,0,0,1,2.6-8.69l-4.49-2.51a17.88,17.88,0,0,0-1.83,7.85C94.87,133.68,94.89,134.09,94.92,134.53Z" fill="#c5a059"/><path d="M112.6,151a17.85,17.85,0,0,0,7.1-1.48l-2.79-1.43a28.72,28.72,0,0,1-4.38,2.91Z" fill="#c5a059"/><path d="M118,147.11l3.2,1.64a17.76,17.76,0,0,0,6.36-6l-4.2-2.35A26.56,26.56,0,0,1,118,147.11Z" fill="#c5a059"/><path d="M124,139.15l4.25,2.38a17.71,17.71,0,0,0,2-8.26v-.51l-3.57-1.8A31.42,31.42,0,0,1,124,139.15Z" fill="#c5a059"/><path d="M95.12,136.23a17.48,17.48,0,0,0,3,7.26,40,40,0,0,1,.27-5.41Z" fill="#c5a059"/><path d="M97.36,124.21l4.44,2.49a26.39,26.39,0,0,1,5.1-6.82q-1.68-1-3.09-2A17.82,17.82,0,0,0,97.36,124.21Z" fill="#c5a059"/><path d="M109.87,150.78a29.1,29.1,0,0,0,5.7-3.39c-2.46-1.28-5-2.62-7.54-4l-3,5.88A17.57,17.57,0,0,0,109.87,150.78Z" fill="#c5a059"/><path d="M99.56,145.27a18.13,18.13,0,0,0,4.23,3.38l3-5.91c-2.41-1.3-4.8-2.62-7.14-3.93A39.41,39.41,0,0,0,99.56,145.27Z" fill="#c5a059"/><path d="M140.85,133.27a28.07,28.07,0,0,0-12.08-23.17l.45-.68a1.2,1.2,0,0,0-2-1.34l-2,3a1.21,1.21,0,0,0,1,1.88,1.21,1.21,0,0,0,1-.53l.26-.39A25.85,25.85,0,0,1,100.28,156l.43-.77a1.2,1.2,0,1,0-2.1-1.17l-1.93,3.47a1.19,1.19,0,0,0,.46,1.63,1.25,1.25,0,0,0,.58.15,1.2,1.2,0,0,0,1-.61l.34-.6a28.07,28.07,0,0,0,12.6,3.4v3l-6.41-.13a.83.83,0,0,0-.71.36l-2,2.75a.86.86,0,0,0,.69,1.36H115.6a.86.86,0,0,0,.61-.25l2.51-2.51a.85.85,0,0,0-.59-1.46l-4-.08v-3.09A28.29,28.29,0,0,0,140.85,133.27Zm-25.6,33.89H105l.75-1,10.37.19Z" fill="#c5a059"/></svg>